<mxfile host="app.diagrams.net" modified="2021-04-05T11:24:51.958Z" agent="5.0 (Windows NT 10.0; Win64; x64) AppleWebKit/537.36 (KHTML, like Gecko) Chrome/88.0.4324.104 Safari/537.36" etag="bDKwbESh-KAr0NW-kDms" version="14.5.7" type="github">
  <diagram id="WqHpsA654vQWzBJ54qnW" name="Page-1">
    <mxGraphModel dx="865" dy="457" grid="1" gridSize="10" guides="1" tooltips="1" connect="1" arrows="1" fold="1" page="1" pageScale="1" pageWidth="827" pageHeight="1169" math="0" shadow="0">
      <root>
        <mxCell id="0" />
        <mxCell id="1" parent="0" />
        <mxCell id="_mBUxWX0OjbOPoJ2d4vH-18" style="edgeStyle=orthogonalEdgeStyle;rounded=0;orthogonalLoop=1;jettySize=auto;html=1;entryX=0.5;entryY=0;entryDx=0;entryDy=0;" parent="1" source="_mBUxWX0OjbOPoJ2d4vH-1" target="_mBUxWX0OjbOPoJ2d4vH-4" edge="1">
          <mxGeometry relative="1" as="geometry" />
        </mxCell>
        <mxCell id="_mBUxWX0OjbOPoJ2d4vH-1" value="" style="ellipse;whiteSpace=wrap;html=1;" parent="1" vertex="1">
          <mxGeometry x="310" y="5" width="120" height="50" as="geometry" />
        </mxCell>
        <mxCell id="_mBUxWX0OjbOPoJ2d4vH-2" value="Старт" style="text;html=1;strokeColor=none;fillColor=none;align=center;verticalAlign=middle;whiteSpace=wrap;rounded=0;" parent="1" vertex="1">
          <mxGeometry x="335" y="20" width="70" height="20" as="geometry" />
        </mxCell>
        <mxCell id="_mBUxWX0OjbOPoJ2d4vH-82" style="edgeStyle=orthogonalEdgeStyle;rounded=0;orthogonalLoop=1;jettySize=auto;html=1;strokeWidth=2;fontSize=13;entryX=1;entryY=0.5;entryDx=0;entryDy=0;" parent="1" source="_mBUxWX0OjbOPoJ2d4vH-4" target="_mBUxWX0OjbOPoJ2d4vH-1" edge="1">
          <mxGeometry relative="1" as="geometry">
            <mxPoint x="450" y="20" as="targetPoint" />
            <Array as="points">
              <mxPoint x="520" y="100" />
              <mxPoint x="520" y="30" />
            </Array>
          </mxGeometry>
        </mxCell>
        <mxCell id="_mBUxWX0OjbOPoJ2d4vH-4" value="" style="rhombus;whiteSpace=wrap;html=1;" parent="1" vertex="1">
          <mxGeometry x="320" y="70" width="100" height="60" as="geometry" />
        </mxCell>
        <mxCell id="_mBUxWX0OjbOPoJ2d4vH-17" style="edgeStyle=orthogonalEdgeStyle;rounded=0;orthogonalLoop=1;jettySize=auto;html=1;entryX=0.5;entryY=0;entryDx=0;entryDy=0;" parent="1" target="_mBUxWX0OjbOPoJ2d4vH-7" edge="1">
          <mxGeometry relative="1" as="geometry">
            <mxPoint x="370" y="130" as="sourcePoint" />
          </mxGeometry>
        </mxCell>
        <mxCell id="_mBUxWX0OjbOPoJ2d4vH-5" value="Начало" style="text;html=1;strokeColor=none;fillColor=none;align=center;verticalAlign=middle;whiteSpace=wrap;rounded=0;" parent="1" vertex="1">
          <mxGeometry x="350" y="90" width="40" height="20" as="geometry" />
        </mxCell>
        <mxCell id="_mBUxWX0OjbOPoJ2d4vH-7" value="" style="rounded=0;whiteSpace=wrap;html=1;" parent="1" vertex="1">
          <mxGeometry x="305" y="150" width="130" height="110" as="geometry" />
        </mxCell>
        <mxCell id="_mBUxWX0OjbOPoJ2d4vH-8" value="(RgMx) &amp;lt; - &amp;lt;0&amp;gt;&lt;br&gt;(RgMy) &amp;lt; - &amp;lt;0&amp;gt;&lt;br&gt;(RgMz) &amp;lt; - &amp;lt;0&amp;gt;&lt;br&gt;(RgEx) &amp;lt; - &amp;lt;0&amp;gt;&lt;br&gt;(RgEy) &amp;lt; - &amp;lt;0&amp;gt;&lt;br&gt;(RgEz) &amp;lt; - &amp;lt;0&amp;gt;&lt;br&gt;(CT) &amp;lt; -&amp;nbsp; &amp;lt;0&amp;gt;" style="text;html=1;strokeColor=none;fillColor=none;align=center;verticalAlign=middle;whiteSpace=wrap;rounded=0;" parent="1" vertex="1">
          <mxGeometry x="315" y="160" width="105" height="90" as="geometry" />
        </mxCell>
        <mxCell id="_mBUxWX0OjbOPoJ2d4vH-14" style="edgeStyle=orthogonalEdgeStyle;rounded=0;orthogonalLoop=1;jettySize=auto;html=1;entryX=0.5;entryY=0;entryDx=0;entryDy=0;" parent="1" source="_mBUxWX0OjbOPoJ2d4vH-10" target="_mBUxWX0OjbOPoJ2d4vH-12" edge="1">
          <mxGeometry relative="1" as="geometry" />
        </mxCell>
        <mxCell id="_mBUxWX0OjbOPoJ2d4vH-10" value="" style="rounded=0;whiteSpace=wrap;html=1;" parent="1" vertex="1">
          <mxGeometry x="302.5" y="290" width="140" height="90" as="geometry" />
        </mxCell>
        <mxCell id="_mBUxWX0OjbOPoJ2d4vH-11" value="(RgMx) &amp;lt; - &amp;lt;X&amp;gt;&lt;br&gt;(RgMy) &amp;lt; - &amp;lt;Y&amp;gt;&lt;br&gt;(RgEx) &amp;lt; - &amp;lt;EX&amp;gt;&lt;br&gt;(RgEy) &amp;lt; - &amp;lt;EY&amp;gt;&lt;br&gt;(CT)&amp;nbsp; &amp;lt; -&amp;nbsp; &amp;lt;10&amp;gt;" style="text;html=1;strokeColor=none;fillColor=none;align=center;verticalAlign=middle;whiteSpace=wrap;rounded=0;" parent="1" vertex="1">
          <mxGeometry x="320" y="280" width="100" height="90" as="geometry" />
        </mxCell>
        <mxCell id="_mBUxWX0OjbOPoJ2d4vH-88" style="edgeStyle=orthogonalEdgeStyle;rounded=0;orthogonalLoop=1;jettySize=auto;html=1;entryX=0.5;entryY=0;entryDx=0;entryDy=0;strokeWidth=2;fontSize=14;" parent="1" source="_mBUxWX0OjbOPoJ2d4vH-12" target="_mBUxWX0OjbOPoJ2d4vH-21" edge="1">
          <mxGeometry relative="1" as="geometry" />
        </mxCell>
        <mxCell id="_mBUxWX0OjbOPoJ2d4vH-12" value="" style="rounded=0;whiteSpace=wrap;html=1;" parent="1" vertex="1">
          <mxGeometry x="292.5" y="410" width="160" height="50" as="geometry" />
        </mxCell>
        <mxCell id="_mBUxWX0OjbOPoJ2d4vH-13" value="B &amp;lt; - RgX[9]&amp;nbsp; ^ RgY[9]" style="text;html=1;strokeColor=none;fillColor=none;align=center;verticalAlign=middle;whiteSpace=wrap;rounded=0;" parent="1" vertex="1">
          <mxGeometry x="302.5" y="425" width="140" height="20" as="geometry" />
        </mxCell>
        <mxCell id="_mBUxWX0OjbOPoJ2d4vH-20" value="Денормализация Mx сдвигая её вправо на 1 разряд добавляя 1 к Ex" style="text;html=1;strokeColor=none;fillColor=none;align=center;verticalAlign=middle;whiteSpace=wrap;rounded=0;fontSize=14;" parent="1" vertex="1">
          <mxGeometry x="530" y="510" width="240" height="20" as="geometry" />
        </mxCell>
        <mxCell id="_mBUxWX0OjbOPoJ2d4vH-90" style="edgeStyle=orthogonalEdgeStyle;rounded=0;orthogonalLoop=1;jettySize=auto;html=1;entryX=0.5;entryY=0;entryDx=0;entryDy=0;strokeWidth=2;fontSize=14;" parent="1" source="_mBUxWX0OjbOPoJ2d4vH-21" target="_mBUxWX0OjbOPoJ2d4vH-24" edge="1">
          <mxGeometry relative="1" as="geometry" />
        </mxCell>
        <mxCell id="_mBUxWX0OjbOPoJ2d4vH-21" value="" style="rounded=0;whiteSpace=wrap;html=1;fontSize=12;" parent="1" vertex="1">
          <mxGeometry x="297.5" y="490" width="150" height="60" as="geometry" />
        </mxCell>
        <mxCell id="_mBUxWX0OjbOPoJ2d4vH-22" value="&lt;font style=&quot;font-size: 14px&quot;&gt;^ -XOR&amp;nbsp;&lt;br&gt;Определяем знак искомого значения&lt;/font&gt;" style="text;html=1;strokeColor=none;fillColor=none;align=center;verticalAlign=middle;whiteSpace=wrap;rounded=0;" parent="1" vertex="1">
          <mxGeometry x="510" y="405" width="270" height="40" as="geometry" />
        </mxCell>
        <mxCell id="_mBUxWX0OjbOPoJ2d4vH-23" value="(RgMx) &amp;lt;- (RgMx) * 2&lt;br style=&quot;font-size: 12px&quot;&gt;(RgEx) &amp;lt;- (RgEx) + 1" style="text;html=1;strokeColor=none;fillColor=none;align=center;verticalAlign=middle;whiteSpace=wrap;rounded=0;fontSize=12;" parent="1" vertex="1">
          <mxGeometry x="307.5" y="505" width="130" height="30" as="geometry" />
        </mxCell>
        <mxCell id="_mBUxWX0OjbOPoJ2d4vH-93" style="edgeStyle=orthogonalEdgeStyle;rounded=0;orthogonalLoop=1;jettySize=auto;html=1;entryX=0.5;entryY=0;entryDx=0;entryDy=0;strokeWidth=2;fontSize=14;exitX=0.5;exitY=1;exitDx=0;exitDy=0;" parent="1" source="uvNa9s3spd6jjnI6d6CA-7" target="_mBUxWX0OjbOPoJ2d4vH-32" edge="1">
          <mxGeometry relative="1" as="geometry">
            <mxPoint x="353" y="880" as="sourcePoint" />
          </mxGeometry>
        </mxCell>
        <mxCell id="uvNa9s3spd6jjnI6d6CA-4" style="edgeStyle=orthogonalEdgeStyle;rounded=0;orthogonalLoop=1;jettySize=auto;html=1;entryX=0.5;entryY=0;entryDx=0;entryDy=0;" edge="1" parent="1" source="_mBUxWX0OjbOPoJ2d4vH-24" target="uvNa9s3spd6jjnI6d6CA-2">
          <mxGeometry relative="1" as="geometry" />
        </mxCell>
        <mxCell id="_mBUxWX0OjbOPoJ2d4vH-24" value="" style="rounded=0;whiteSpace=wrap;html=1;fontSize=12;" parent="1" vertex="1">
          <mxGeometry x="260" y="605" width="225" height="60" as="geometry" />
        </mxCell>
        <mxCell id="_mBUxWX0OjbOPoJ2d4vH-26" value="(RgEz) &amp;lt; - (RgEx) - (RgEy)" style="text;html=1;strokeColor=none;fillColor=none;align=center;verticalAlign=middle;whiteSpace=wrap;rounded=0;fontSize=12;" parent="1" vertex="1">
          <mxGeometry x="272.5" y="615" width="207.5" height="40" as="geometry" />
        </mxCell>
        <mxCell id="_mBUxWX0OjbOPoJ2d4vH-31" value="Записываем модули Mx и My" style="text;html=1;strokeColor=none;fillColor=none;align=center;verticalAlign=middle;whiteSpace=wrap;rounded=0;fontSize=14;" parent="1" vertex="1">
          <mxGeometry x="610" y="980" width="140" height="70" as="geometry" />
        </mxCell>
        <mxCell id="_mBUxWX0OjbOPoJ2d4vH-92" style="edgeStyle=orthogonalEdgeStyle;rounded=0;orthogonalLoop=1;jettySize=auto;html=1;exitX=1;exitY=0.5;exitDx=0;exitDy=0;entryX=0.5;entryY=0;entryDx=0;entryDy=0;strokeWidth=2;fontSize=14;" parent="1" source="_mBUxWX0OjbOPoJ2d4vH-32" target="_mBUxWX0OjbOPoJ2d4vH-41" edge="1">
          <mxGeometry relative="1" as="geometry" />
        </mxCell>
        <mxCell id="_mBUxWX0OjbOPoJ2d4vH-94" style="edgeStyle=orthogonalEdgeStyle;rounded=0;orthogonalLoop=1;jettySize=auto;html=1;entryX=0.5;entryY=0;entryDx=0;entryDy=0;strokeWidth=2;fontSize=14;" parent="1" source="_mBUxWX0OjbOPoJ2d4vH-32" target="_mBUxWX0OjbOPoJ2d4vH-43" edge="1">
          <mxGeometry relative="1" as="geometry" />
        </mxCell>
        <mxCell id="_mBUxWX0OjbOPoJ2d4vH-32" value="" style="rhombus;whiteSpace=wrap;html=1;fontSize=14;" parent="1" vertex="1">
          <mxGeometry x="245" y="980" width="145" height="70" as="geometry" />
        </mxCell>
        <mxCell id="_mBUxWX0OjbOPoJ2d4vH-33" value="(RgMx[9]) = 1" style="text;html=1;strokeColor=none;fillColor=none;align=center;verticalAlign=middle;whiteSpace=wrap;rounded=0;fontSize=14;" parent="1" vertex="1">
          <mxGeometry x="272.5" y="997.5" width="90" height="35" as="geometry" />
        </mxCell>
        <mxCell id="_mBUxWX0OjbOPoJ2d4vH-37" value="Нет" style="text;html=1;strokeColor=none;fillColor=none;align=center;verticalAlign=middle;whiteSpace=wrap;rounded=0;fontSize=14;" parent="1" vertex="1">
          <mxGeometry x="259" y="1060" width="40" height="20" as="geometry" />
        </mxCell>
        <mxCell id="_mBUxWX0OjbOPoJ2d4vH-38" value="Да" style="text;html=1;strokeColor=none;fillColor=none;align=center;verticalAlign=middle;whiteSpace=wrap;rounded=0;fontSize=14;" parent="1" vertex="1">
          <mxGeometry x="415" y="990" width="40" height="20" as="geometry" />
        </mxCell>
        <mxCell id="_mBUxWX0OjbOPoJ2d4vH-97" style="edgeStyle=orthogonalEdgeStyle;rounded=0;orthogonalLoop=1;jettySize=auto;html=1;strokeWidth=2;fontSize=14;" parent="1" source="_mBUxWX0OjbOPoJ2d4vH-39" edge="1">
          <mxGeometry relative="1" as="geometry">
            <mxPoint x="380" y="920" as="targetPoint" />
            <Array as="points">
              <mxPoint x="600" y="1090" />
              <mxPoint x="600" y="920" />
            </Array>
          </mxGeometry>
        </mxCell>
        <mxCell id="_mBUxWX0OjbOPoJ2d4vH-39" value="" style="rounded=0;whiteSpace=wrap;html=1;fontSize=14;" parent="1" vertex="1">
          <mxGeometry x="405" y="1070" width="170" height="40" as="geometry" />
        </mxCell>
        <mxCell id="_mBUxWX0OjbOPoJ2d4vH-41" value="(RgMx) &amp;lt;- n(RgMx) +1" style="text;html=1;strokeColor=none;fillColor=none;align=center;verticalAlign=middle;whiteSpace=wrap;rounded=0;fontSize=14;" parent="1" vertex="1">
          <mxGeometry x="415" y="1070" width="150" height="40" as="geometry" />
        </mxCell>
        <mxCell id="_mBUxWX0OjbOPoJ2d4vH-96" style="edgeStyle=orthogonalEdgeStyle;rounded=0;orthogonalLoop=1;jettySize=auto;html=1;entryX=0.5;entryY=0;entryDx=0;entryDy=0;strokeWidth=2;fontSize=14;" parent="1" source="_mBUxWX0OjbOPoJ2d4vH-43" target="_mBUxWX0OjbOPoJ2d4vH-46" edge="1">
          <mxGeometry relative="1" as="geometry" />
        </mxCell>
        <mxCell id="_mBUxWX0OjbOPoJ2d4vH-99" style="edgeStyle=orthogonalEdgeStyle;rounded=0;orthogonalLoop=1;jettySize=auto;html=1;entryX=0.5;entryY=0;entryDx=0;entryDy=0;strokeWidth=2;fontSize=14;" parent="1" source="_mBUxWX0OjbOPoJ2d4vH-43" target="_mBUxWX0OjbOPoJ2d4vH-64" edge="1">
          <mxGeometry relative="1" as="geometry" />
        </mxCell>
        <mxCell id="_mBUxWX0OjbOPoJ2d4vH-43" value="" style="rhombus;whiteSpace=wrap;html=1;fontSize=14;" parent="1" vertex="1">
          <mxGeometry x="236.25" y="1160" width="160" height="60" as="geometry" />
        </mxCell>
        <mxCell id="_mBUxWX0OjbOPoJ2d4vH-44" value="(RgMy[9]) = 1" style="text;html=1;strokeColor=none;fillColor=none;align=center;verticalAlign=middle;whiteSpace=wrap;rounded=0;fontSize=14;" parent="1" vertex="1">
          <mxGeometry x="270" y="1172.5" width="97.5" height="35" as="geometry" />
        </mxCell>
        <mxCell id="_mBUxWX0OjbOPoJ2d4vH-98" style="edgeStyle=orthogonalEdgeStyle;rounded=0;orthogonalLoop=1;jettySize=auto;html=1;strokeWidth=2;fontSize=14;" parent="1" source="_mBUxWX0OjbOPoJ2d4vH-45" edge="1">
          <mxGeometry relative="1" as="geometry">
            <mxPoint x="320" y="1130" as="targetPoint" />
            <Array as="points">
              <mxPoint x="640" y="1280" />
              <mxPoint x="640" y="1130" />
            </Array>
          </mxGeometry>
        </mxCell>
        <mxCell id="_mBUxWX0OjbOPoJ2d4vH-45" value="" style="rounded=0;whiteSpace=wrap;html=1;fontSize=14;" parent="1" vertex="1">
          <mxGeometry x="416.25" y="1260" width="162.5" height="40" as="geometry" />
        </mxCell>
        <mxCell id="_mBUxWX0OjbOPoJ2d4vH-46" value="(RgMy) &amp;lt;- n(RgMy) +1" style="text;html=1;strokeColor=none;fillColor=none;align=center;verticalAlign=middle;whiteSpace=wrap;rounded=0;fontSize=14;" parent="1" vertex="1">
          <mxGeometry x="426.25" y="1260" width="142.5" height="40" as="geometry" />
        </mxCell>
        <mxCell id="_mBUxWX0OjbOPoJ2d4vH-53" value="Сравниваем перемещенный бит&amp;nbsp; &amp;nbsp;" style="text;html=1;strokeColor=none;fillColor=none;align=center;verticalAlign=middle;whiteSpace=wrap;rounded=0;fontSize=14;" parent="1" vertex="1">
          <mxGeometry x="573.75" y="1320" width="152.5" height="60" as="geometry" />
        </mxCell>
        <mxCell id="_mBUxWX0OjbOPoJ2d4vH-56" value="" style="rounded=0;whiteSpace=wrap;html=1;fontSize=19;" parent="1" vertex="1">
          <mxGeometry x="116.25" y="1410" width="202.5" height="70" as="geometry" />
        </mxCell>
        <mxCell id="uvNa9s3spd6jjnI6d6CA-16" style="edgeStyle=orthogonalEdgeStyle;rounded=0;orthogonalLoop=1;jettySize=auto;html=1;entryX=0;entryY=0.5;entryDx=0;entryDy=0;strokeWidth=2;" edge="1" parent="1" source="_mBUxWX0OjbOPoJ2d4vH-57" target="uvNa9s3spd6jjnI6d6CA-14">
          <mxGeometry relative="1" as="geometry" />
        </mxCell>
        <mxCell id="_mBUxWX0OjbOPoJ2d4vH-57" value="(RgMx) &amp;lt;- (RgMx) - (RgMy)&lt;br&gt;(RgMz[0]) &amp;lt;- (RgMx[7])&amp;nbsp;" style="text;html=1;strokeColor=none;fillColor=none;align=center;verticalAlign=middle;whiteSpace=wrap;rounded=0;fontSize=13;" parent="1" vertex="1">
          <mxGeometry x="120" y="1410" width="195" height="65" as="geometry" />
        </mxCell>
        <mxCell id="_mBUxWX0OjbOPoJ2d4vH-117" style="edgeStyle=orthogonalEdgeStyle;rounded=0;orthogonalLoop=1;jettySize=auto;html=1;entryX=0.5;entryY=0;entryDx=0;entryDy=0;strokeWidth=2;fontSize=14;" parent="1" source="_mBUxWX0OjbOPoJ2d4vH-58" target="_mBUxWX0OjbOPoJ2d4vH-69" edge="1">
          <mxGeometry relative="1" as="geometry" />
        </mxCell>
        <mxCell id="_mBUxWX0OjbOPoJ2d4vH-58" value="" style="rhombus;whiteSpace=wrap;html=1;fontSize=13;" parent="1" vertex="1">
          <mxGeometry x="320" y="1560" width="110" height="70" as="geometry" />
        </mxCell>
        <mxCell id="uvNa9s3spd6jjnI6d6CA-20" style="edgeStyle=orthogonalEdgeStyle;rounded=0;orthogonalLoop=1;jettySize=auto;html=1;entryX=0.5;entryY=1;entryDx=0;entryDy=0;strokeWidth=2;exitX=0.5;exitY=0;exitDx=0;exitDy=0;" edge="1" parent="1" source="_mBUxWX0OjbOPoJ2d4vH-58" target="_mBUxWX0OjbOPoJ2d4vH-64">
          <mxGeometry relative="1" as="geometry">
            <Array as="points">
              <mxPoint x="375" y="1490" />
              <mxPoint x="370" y="1490" />
            </Array>
          </mxGeometry>
        </mxCell>
        <mxCell id="_mBUxWX0OjbOPoJ2d4vH-59" value="(CT) =0" style="text;html=1;strokeColor=none;fillColor=none;align=center;verticalAlign=middle;whiteSpace=wrap;rounded=0;fontSize=13;rotation=0;" parent="1" vertex="1">
          <mxGeometry x="333.75" y="1580" width="82.5" height="20" as="geometry" />
        </mxCell>
        <mxCell id="_mBUxWX0OjbOPoJ2d4vH-62" value="Да" style="text;html=1;strokeColor=none;fillColor=none;align=center;verticalAlign=middle;whiteSpace=wrap;rounded=0;fontSize=13;" parent="1" vertex="1">
          <mxGeometry x="196.25" y="1340" width="40" height="20" as="geometry" />
        </mxCell>
        <mxCell id="_mBUxWX0OjbOPoJ2d4vH-63" value="Да" style="text;html=1;strokeColor=none;fillColor=none;align=center;verticalAlign=middle;whiteSpace=wrap;rounded=0;fontSize=14;" parent="1" vertex="1">
          <mxGeometry x="498.75" y="1200" width="40" height="20" as="geometry" />
        </mxCell>
        <mxCell id="_mBUxWX0OjbOPoJ2d4vH-102" style="edgeStyle=orthogonalEdgeStyle;rounded=0;orthogonalLoop=1;jettySize=auto;html=1;strokeWidth=2;fontSize=14;" parent="1" source="_mBUxWX0OjbOPoJ2d4vH-64" edge="1">
          <mxGeometry relative="1" as="geometry">
            <mxPoint x="539" y="1400" as="targetPoint" />
            <Array as="points">
              <mxPoint x="539" y="1370" />
            </Array>
          </mxGeometry>
        </mxCell>
        <mxCell id="_mBUxWX0OjbOPoJ2d4vH-113" style="edgeStyle=orthogonalEdgeStyle;rounded=0;orthogonalLoop=1;jettySize=auto;html=1;strokeWidth=2;fontSize=14;" parent="1" source="_mBUxWX0OjbOPoJ2d4vH-64" edge="1">
          <mxGeometry relative="1" as="geometry">
            <mxPoint x="220" y="1400" as="targetPoint" />
            <Array as="points">
              <mxPoint x="220" y="1370" />
            </Array>
          </mxGeometry>
        </mxCell>
        <mxCell id="_mBUxWX0OjbOPoJ2d4vH-64" value="" style="rhombus;whiteSpace=wrap;html=1;fontSize=14;" parent="1" vertex="1">
          <mxGeometry x="285" y="1340" width="170" height="60" as="geometry" />
        </mxCell>
        <mxCell id="_mBUxWX0OjbOPoJ2d4vH-65" value="(RgMz[1]) = 0" style="text;html=1;strokeColor=none;fillColor=none;align=center;verticalAlign=middle;whiteSpace=wrap;rounded=0;fontSize=14;" parent="1" vertex="1">
          <mxGeometry x="307.5" y="1360" width="127.5" height="20" as="geometry" />
        </mxCell>
        <mxCell id="uvNa9s3spd6jjnI6d6CA-17" style="edgeStyle=orthogonalEdgeStyle;rounded=0;orthogonalLoop=1;jettySize=auto;html=1;entryX=0.5;entryY=0;entryDx=0;entryDy=0;strokeWidth=2;" edge="1" parent="1" source="_mBUxWX0OjbOPoJ2d4vH-67" target="uvNa9s3spd6jjnI6d6CA-14">
          <mxGeometry relative="1" as="geometry" />
        </mxCell>
        <mxCell id="_mBUxWX0OjbOPoJ2d4vH-67" value="" style="rounded=0;whiteSpace=wrap;html=1;fontSize=19;" parent="1" vertex="1">
          <mxGeometry x="456.25" y="1400" width="175" height="50" as="geometry" />
        </mxCell>
        <mxCell id="_mBUxWX0OjbOPoJ2d4vH-68" value="(RgMx) &amp;lt;- (RgMx) + (RgMy)&lt;br&gt;(RgMz[0]) &amp;lt;- (RgMx[7])&amp;nbsp;&lt;br&gt;" style="text;html=1;strokeColor=none;fillColor=none;align=center;verticalAlign=middle;whiteSpace=wrap;rounded=0;fontSize=13;" parent="1" vertex="1">
          <mxGeometry x="462.5" y="1410" width="173.75" height="30" as="geometry" />
        </mxCell>
        <mxCell id="_mBUxWX0OjbOPoJ2d4vH-120" style="edgeStyle=orthogonalEdgeStyle;rounded=0;orthogonalLoop=1;jettySize=auto;html=1;strokeWidth=2;fontSize=14;" parent="1" source="_mBUxWX0OjbOPoJ2d4vH-69" edge="1">
          <mxGeometry relative="1" as="geometry">
            <mxPoint x="530" y="1790" as="targetPoint" />
          </mxGeometry>
        </mxCell>
        <mxCell id="_mBUxWX0OjbOPoJ2d4vH-124" style="edgeStyle=orthogonalEdgeStyle;rounded=0;orthogonalLoop=1;jettySize=auto;html=1;entryX=0.5;entryY=0;entryDx=0;entryDy=0;strokeWidth=2;fontSize=14;exitX=0.5;exitY=1;exitDx=0;exitDy=0;" parent="1" source="_mBUxWX0OjbOPoJ2d4vH-69" target="_mBUxWX0OjbOPoJ2d4vH-73" edge="1">
          <mxGeometry relative="1" as="geometry">
            <mxPoint x="371" y="1800" as="sourcePoint" />
          </mxGeometry>
        </mxCell>
        <mxCell id="_mBUxWX0OjbOPoJ2d4vH-69" value="" style="rhombus;whiteSpace=wrap;html=1;fontSize=13;" parent="1" vertex="1">
          <mxGeometry x="290" y="1690" width="170" height="70" as="geometry" />
        </mxCell>
        <mxCell id="_mBUxWX0OjbOPoJ2d4vH-70" value="(RgMz[9]) = B" style="text;html=1;strokeColor=none;fillColor=none;align=center;verticalAlign=middle;whiteSpace=wrap;rounded=0;fontSize=13;" parent="1" vertex="1">
          <mxGeometry x="312.5" y="1712.5" width="120" height="25" as="geometry" />
        </mxCell>
        <mxCell id="_mBUxWX0OjbOPoJ2d4vH-71" value="" style="rounded=0;whiteSpace=wrap;html=1;fontSize=13;" parent="1" vertex="1">
          <mxGeometry x="453.13" y="1790" width="160" height="60" as="geometry" />
        </mxCell>
        <mxCell id="_mBUxWX0OjbOPoJ2d4vH-123" style="edgeStyle=orthogonalEdgeStyle;rounded=0;orthogonalLoop=1;jettySize=auto;html=1;strokeWidth=2;fontSize=14;" parent="1" source="_mBUxWX0OjbOPoJ2d4vH-72" edge="1">
          <mxGeometry relative="1" as="geometry">
            <mxPoint x="630" y="1880" as="targetPoint" />
            <Array as="points">
              <mxPoint x="750" y="1820" />
            </Array>
          </mxGeometry>
        </mxCell>
        <mxCell id="_mBUxWX0OjbOPoJ2d4vH-72" value="(RgMz) &amp;lt;- n(RgMz) +1" style="text;html=1;strokeColor=none;fillColor=none;align=center;verticalAlign=middle;whiteSpace=wrap;rounded=0;fontSize=13;" parent="1" vertex="1">
          <mxGeometry x="451.88" y="1800" width="157.5" height="40" as="geometry" />
        </mxCell>
        <mxCell id="_mBUxWX0OjbOPoJ2d4vH-132" style="edgeStyle=orthogonalEdgeStyle;rounded=0;orthogonalLoop=1;jettySize=auto;html=1;entryX=0.5;entryY=0;entryDx=0;entryDy=0;strokeWidth=2;fontSize=14;" parent="1" source="_mBUxWX0OjbOPoJ2d4vH-73" target="_mBUxWX0OjbOPoJ2d4vH-77" edge="1">
          <mxGeometry relative="1" as="geometry" />
        </mxCell>
        <mxCell id="_mBUxWX0OjbOPoJ2d4vH-73" value="" style="rhombus;whiteSpace=wrap;html=1;fontSize=13;" parent="1" vertex="1">
          <mxGeometry x="286.25" y="1914" width="170" height="80" as="geometry" />
        </mxCell>
        <mxCell id="_mBUxWX0OjbOPoJ2d4vH-126" style="edgeStyle=orthogonalEdgeStyle;rounded=0;orthogonalLoop=1;jettySize=auto;html=1;entryX=0.5;entryY=0;entryDx=0;entryDy=0;strokeWidth=2;fontSize=14;" parent="1" source="_mBUxWX0OjbOPoJ2d4vH-74" target="_mBUxWX0OjbOPoJ2d4vH-76" edge="1">
          <mxGeometry relative="1" as="geometry" />
        </mxCell>
        <mxCell id="_mBUxWX0OjbOPoJ2d4vH-74" value="(RgMz[9]) ^ RgMz[8] = 1" style="text;html=1;strokeColor=none;fillColor=none;align=center;verticalAlign=middle;whiteSpace=wrap;rounded=0;fontSize=13;" parent="1" vertex="1">
          <mxGeometry x="291.88" y="1929" width="160" height="50" as="geometry" />
        </mxCell>
        <mxCell id="_mBUxWX0OjbOPoJ2d4vH-75" value="" style="rounded=0;whiteSpace=wrap;html=1;fontSize=13;" parent="1" vertex="1">
          <mxGeometry x="456.25" y="2035" width="150" height="60" as="geometry" />
        </mxCell>
        <mxCell id="_mBUxWX0OjbOPoJ2d4vH-135" style="edgeStyle=orthogonalEdgeStyle;rounded=0;orthogonalLoop=1;jettySize=auto;html=1;strokeWidth=2;fontSize=14;" parent="1" source="_mBUxWX0OjbOPoJ2d4vH-76" edge="1">
          <mxGeometry relative="1" as="geometry">
            <mxPoint x="370" y="1880" as="targetPoint" />
            <Array as="points">
              <mxPoint x="631" y="2065" />
              <mxPoint x="631" y="1880" />
            </Array>
          </mxGeometry>
        </mxCell>
        <mxCell id="_mBUxWX0OjbOPoJ2d4vH-76" value="(RgMz) &amp;lt;- (RgMz) *2&lt;sup&gt;-1&lt;/sup&gt;&lt;br&gt;(RgEz) &amp;lt;- (RgEz)-1" style="text;html=1;strokeColor=none;fillColor=none;align=center;verticalAlign=middle;whiteSpace=wrap;rounded=0;fontSize=13;" parent="1" vertex="1">
          <mxGeometry x="456.25" y="2030" width="155" height="70" as="geometry" />
        </mxCell>
        <mxCell id="_mBUxWX0OjbOPoJ2d4vH-133" style="edgeStyle=orthogonalEdgeStyle;rounded=0;orthogonalLoop=1;jettySize=auto;html=1;entryX=0.5;entryY=0;entryDx=0;entryDy=0;strokeWidth=2;fontSize=14;" parent="1" source="_mBUxWX0OjbOPoJ2d4vH-77" target="_mBUxWX0OjbOPoJ2d4vH-79" edge="1">
          <mxGeometry relative="1" as="geometry" />
        </mxCell>
        <mxCell id="_mBUxWX0OjbOPoJ2d4vH-77" value="" style="rounded=0;whiteSpace=wrap;html=1;fontSize=13;" parent="1" vertex="1">
          <mxGeometry x="311.25" y="2050" width="120" height="60" as="geometry" />
        </mxCell>
        <mxCell id="_mBUxWX0OjbOPoJ2d4vH-78" value="MD &amp;lt;- (RgMz)&lt;br&gt;MD &amp;lt;- (RgEz)" style="text;html=1;strokeColor=none;fillColor=none;align=center;verticalAlign=middle;whiteSpace=wrap;rounded=0;fontSize=13;" parent="1" vertex="1">
          <mxGeometry x="316.25" y="2065" width="110" height="30" as="geometry" />
        </mxCell>
        <mxCell id="_mBUxWX0OjbOPoJ2d4vH-79" value="" style="ellipse;whiteSpace=wrap;html=1;fontSize=13;" parent="1" vertex="1">
          <mxGeometry x="311.25" y="2170" width="120" height="80" as="geometry" />
        </mxCell>
        <mxCell id="_mBUxWX0OjbOPoJ2d4vH-80" value="Стоп" style="text;html=1;strokeColor=none;fillColor=none;align=center;verticalAlign=middle;whiteSpace=wrap;rounded=0;fontSize=13;" parent="1" vertex="1">
          <mxGeometry x="337.25" y="2200" width="70" height="20" as="geometry" />
        </mxCell>
        <mxCell id="_mBUxWX0OjbOPoJ2d4vH-83" value="Да" style="text;html=1;strokeColor=none;fillColor=none;align=center;verticalAlign=middle;whiteSpace=wrap;rounded=0;fontSize=13;" parent="1" vertex="1">
          <mxGeometry x="380" y="120" width="40" height="20" as="geometry" />
        </mxCell>
        <mxCell id="_mBUxWX0OjbOPoJ2d4vH-84" value="Нет" style="text;html=1;strokeColor=none;fillColor=none;align=center;verticalAlign=middle;whiteSpace=wrap;rounded=0;fontSize=13;" parent="1" vertex="1">
          <mxGeometry x="447.5" y="80" width="40" height="20" as="geometry" />
        </mxCell>
        <mxCell id="_mBUxWX0OjbOPoJ2d4vH-85" value="Начало работы программы" style="text;html=1;strokeColor=none;fillColor=none;align=center;verticalAlign=middle;whiteSpace=wrap;rounded=0;fontSize=15;" parent="1" vertex="1">
          <mxGeometry x="532.5" y="20" width="230" height="70" as="geometry" />
        </mxCell>
        <mxCell id="_mBUxWX0OjbOPoJ2d4vH-86" value="Обнуляем используемые регистры" style="text;html=1;strokeColor=none;fillColor=none;align=center;verticalAlign=middle;whiteSpace=wrap;rounded=0;fontSize=14;" parent="1" vertex="1">
          <mxGeometry x="532.5" y="180" width="180" height="20" as="geometry" />
        </mxCell>
        <mxCell id="_mBUxWX0OjbOPoJ2d4vH-87" value="Заносим значения в регистры" style="text;html=1;strokeColor=none;fillColor=none;align=center;verticalAlign=middle;whiteSpace=wrap;rounded=0;fontSize=14;" parent="1" vertex="1">
          <mxGeometry x="520" y="290" width="205" height="20" as="geometry" />
        </mxCell>
        <mxCell id="_mBUxWX0OjbOPoJ2d4vH-89" value="Находим Ez&amp;nbsp;" style="text;html=1;strokeColor=none;fillColor=none;align=center;verticalAlign=middle;whiteSpace=wrap;rounded=0;fontSize=14;" parent="1" vertex="1">
          <mxGeometry x="520" y="625" width="240" height="20" as="geometry" />
        </mxCell>
        <mxCell id="_mBUxWX0OjbOPoJ2d4vH-100" value="Нет" style="text;html=1;strokeColor=none;fillColor=none;align=center;verticalAlign=middle;whiteSpace=wrap;rounded=0;fontSize=14;" parent="1" vertex="1">
          <mxGeometry x="252.5" y="1240" width="40" height="20" as="geometry" />
        </mxCell>
        <mxCell id="_mBUxWX0OjbOPoJ2d4vH-103" value="Нет" style="text;html=1;strokeColor=none;fillColor=none;align=center;verticalAlign=middle;whiteSpace=wrap;rounded=0;fontSize=14;" parent="1" vertex="1">
          <mxGeometry x="500" y="1340" width="40" height="20" as="geometry" />
        </mxCell>
        <mxCell id="_mBUxWX0OjbOPoJ2d4vH-109" value="Если перемещенный бит =1, то восстанавливаем остаток взяв |My|" style="text;html=1;strokeColor=none;fillColor=none;align=center;verticalAlign=middle;whiteSpace=wrap;rounded=0;fontSize=14;" parent="1" vertex="1">
          <mxGeometry x="660" y="1415" width="152.5" height="60" as="geometry" />
        </mxCell>
        <mxCell id="_mBUxWX0OjbOPoJ2d4vH-110" value="Если перемещенный бит =0, то восстанавливаем остаток&amp;nbsp; инвертировав и +1 к|My|" style="text;html=1;strokeColor=none;fillColor=none;align=center;verticalAlign=middle;whiteSpace=wrap;rounded=0;fontSize=14;" parent="1" vertex="1">
          <mxGeometry x="30" y="1480" width="152.5" height="100" as="geometry" />
        </mxCell>
        <mxCell id="_mBUxWX0OjbOPoJ2d4vH-114" value="Пользуемся счетчиком до 9 для того чтобы высчитать все 10 бит (0-8 значение, и 9 бит для знака)" style="text;html=1;strokeColor=none;fillColor=none;align=center;verticalAlign=middle;whiteSpace=wrap;rounded=0;fontSize=14;" parent="1" vertex="1">
          <mxGeometry x="116.25" y="1590" width="197.5" height="60" as="geometry" />
        </mxCell>
        <mxCell id="_mBUxWX0OjbOPoJ2d4vH-115" value="Да" style="text;html=1;strokeColor=none;fillColor=none;align=center;verticalAlign=middle;whiteSpace=wrap;rounded=0;fontSize=13;" parent="1" vertex="1">
          <mxGeometry x="270" y="1540" width="40" height="20" as="geometry" />
        </mxCell>
        <mxCell id="_mBUxWX0OjbOPoJ2d4vH-118" value="Да" style="text;html=1;strokeColor=none;fillColor=none;align=center;verticalAlign=middle;whiteSpace=wrap;rounded=0;fontSize=13;" parent="1" vertex="1">
          <mxGeometry x="323.75" y="1650" width="40" height="20" as="geometry" />
        </mxCell>
        <mxCell id="_mBUxWX0OjbOPoJ2d4vH-119" value="Если знак, помещенный в &lt;b&gt;B&lt;/b&gt; и полученный 7 бит Mz не совпадают, инвертируем Mz + 1" style="text;html=1;strokeColor=none;fillColor=none;align=center;verticalAlign=middle;whiteSpace=wrap;rounded=0;fontSize=14;" parent="1" vertex="1">
          <mxGeometry x="60" y="1700" width="217.5" height="50" as="geometry" />
        </mxCell>
        <mxCell id="_mBUxWX0OjbOPoJ2d4vH-121" value="Нет" style="text;html=1;strokeColor=none;fillColor=none;align=center;verticalAlign=middle;whiteSpace=wrap;rounded=0;fontSize=13;" parent="1" vertex="1">
          <mxGeometry x="477.5" y="1687.5" width="40" height="20" as="geometry" />
        </mxCell>
        <mxCell id="_mBUxWX0OjbOPoJ2d4vH-125" value="Да" style="text;html=1;strokeColor=none;fillColor=none;align=center;verticalAlign=middle;whiteSpace=wrap;rounded=0;fontSize=13;" parent="1" vertex="1">
          <mxGeometry x="327.5" y="1830" width="40" height="20" as="geometry" />
        </mxCell>
        <mxCell id="_mBUxWX0OjbOPoJ2d4vH-129" value="Да" style="text;html=1;strokeColor=none;fillColor=none;align=center;verticalAlign=middle;whiteSpace=wrap;rounded=0;fontSize=13;" parent="1" vertex="1">
          <mxGeometry x="490" y="1929" width="40" height="20" as="geometry" />
        </mxCell>
        <mxCell id="_mBUxWX0OjbOPoJ2d4vH-130" value="Нет" style="text;html=1;strokeColor=none;fillColor=none;align=center;verticalAlign=middle;whiteSpace=wrap;rounded=0;fontSize=13;" parent="1" vertex="1">
          <mxGeometry x="323.75" y="2015" width="40" height="20" as="geometry" />
        </mxCell>
        <mxCell id="_mBUxWX0OjbOPoJ2d4vH-134" value="Денормализация Mz, проверяем совпадают ли 8 и 9 бит, и в случае если да - переносим бит не забывая про Ez" style="text;html=1;strokeColor=none;fillColor=none;align=center;verticalAlign=middle;whiteSpace=wrap;rounded=0;fontSize=14;" parent="1" vertex="1">
          <mxGeometry x="67.5" y="1910" width="205" height="80" as="geometry" />
        </mxCell>
        <mxCell id="uvNa9s3spd6jjnI6d6CA-9" style="edgeStyle=orthogonalEdgeStyle;rounded=0;orthogonalLoop=1;jettySize=auto;html=1;entryX=0.5;entryY=0;entryDx=0;entryDy=0;" edge="1" parent="1" source="uvNa9s3spd6jjnI6d6CA-2" target="uvNa9s3spd6jjnI6d6CA-7">
          <mxGeometry relative="1" as="geometry" />
        </mxCell>
        <mxCell id="uvNa9s3spd6jjnI6d6CA-10" style="edgeStyle=orthogonalEdgeStyle;rounded=0;orthogonalLoop=1;jettySize=auto;html=1;strokeWidth=2;" edge="1" parent="1" source="uvNa9s3spd6jjnI6d6CA-2">
          <mxGeometry relative="1" as="geometry">
            <mxPoint x="40" y="850" as="targetPoint" />
          </mxGeometry>
        </mxCell>
        <mxCell id="uvNa9s3spd6jjnI6d6CA-2" value="" style="rhombus;whiteSpace=wrap;html=1;" vertex="1" parent="1">
          <mxGeometry x="325" y="710" width="105" height="60" as="geometry" />
        </mxCell>
        <mxCell id="uvNa9s3spd6jjnI6d6CA-3" value="(RgMx) = 0" style="text;html=1;strokeColor=none;fillColor=none;align=center;verticalAlign=middle;whiteSpace=wrap;rounded=0;" vertex="1" parent="1">
          <mxGeometry x="333.75" y="730" width="80" height="20" as="geometry" />
        </mxCell>
        <mxCell id="uvNa9s3spd6jjnI6d6CA-11" style="edgeStyle=orthogonalEdgeStyle;rounded=0;orthogonalLoop=1;jettySize=auto;html=1;entryX=0;entryY=0.5;entryDx=0;entryDy=0;strokeWidth=2;" edge="1" parent="1" source="uvNa9s3spd6jjnI6d6CA-7" target="_mBUxWX0OjbOPoJ2d4vH-79">
          <mxGeometry relative="1" as="geometry">
            <mxPoint x="40" y="2210" as="targetPoint" />
            <Array as="points">
              <mxPoint x="10" y="850" />
              <mxPoint x="10" y="2210" />
            </Array>
          </mxGeometry>
        </mxCell>
        <mxCell id="uvNa9s3spd6jjnI6d6CA-7" value="" style="rhombus;whiteSpace=wrap;html=1;" vertex="1" parent="1">
          <mxGeometry x="327.5" y="820" width="105" height="60" as="geometry" />
        </mxCell>
        <mxCell id="uvNa9s3spd6jjnI6d6CA-8" value="(RgMy) = 0" style="text;html=1;strokeColor=none;fillColor=none;align=center;verticalAlign=middle;whiteSpace=wrap;rounded=0;" vertex="1" parent="1">
          <mxGeometry x="336.25" y="840" width="80" height="20" as="geometry" />
        </mxCell>
        <mxCell id="uvNa9s3spd6jjnI6d6CA-14" value="" style="rounded=0;whiteSpace=wrap;html=1;" vertex="1" parent="1">
          <mxGeometry x="447.5" y="1500" width="170" height="50" as="geometry" />
        </mxCell>
        <mxCell id="uvNa9s3spd6jjnI6d6CA-18" style="edgeStyle=orthogonalEdgeStyle;rounded=0;orthogonalLoop=1;jettySize=auto;html=1;strokeWidth=2;entryX=1;entryY=0.5;entryDx=0;entryDy=0;" edge="1" parent="1" source="uvNa9s3spd6jjnI6d6CA-15" target="_mBUxWX0OjbOPoJ2d4vH-58">
          <mxGeometry relative="1" as="geometry">
            <mxPoint x="450" y="1600" as="targetPoint" />
            <Array as="points">
              <mxPoint x="540" y="1590" />
              <mxPoint x="450" y="1590" />
              <mxPoint x="450" y="1595" />
            </Array>
          </mxGeometry>
        </mxCell>
        <mxCell id="uvNa9s3spd6jjnI6d6CA-15" value="&lt;span style=&quot;font-size: 13px&quot;&gt;(RgMz) &amp;lt;- (RgMz) * 2&lt;/span&gt;&lt;sup&gt;-1&lt;/sup&gt;&lt;br style=&quot;font-size: 13px&quot;&gt;&lt;span style=&quot;font-size: 13px&quot;&gt;(CT) &amp;lt;- (CT) -1&lt;/span&gt;" style="text;html=1;strokeColor=none;fillColor=none;align=center;verticalAlign=middle;whiteSpace=wrap;rounded=0;" vertex="1" parent="1">
          <mxGeometry x="453.75" y="1505" width="152.5" height="40" as="geometry" />
        </mxCell>
        <mxCell id="uvNa9s3spd6jjnI6d6CA-19" value="Не равны ли Mx и My 0, если да - завершение программы" style="text;html=1;strokeColor=none;fillColor=none;align=center;verticalAlign=middle;whiteSpace=wrap;rounded=0;" vertex="1" parent="1">
          <mxGeometry x="456.25" y="780" width="217.5" height="30" as="geometry" />
        </mxCell>
        <mxCell id="uvNa9s3spd6jjnI6d6CA-21" value="Нет" style="text;html=1;strokeColor=none;fillColor=none;align=center;verticalAlign=middle;whiteSpace=wrap;rounded=0;fontSize=13;" vertex="1" parent="1">
          <mxGeometry x="327.5" y="1505" width="40" height="20" as="geometry" />
        </mxCell>
      </root>
    </mxGraphModel>
  </diagram>
</mxfile>
